<svg xmlns="http://www.w3.org/2000/svg" width="24" height="24" fill="none"><path fill="url(#a)" d="M12 2C6.5 2 2 6.5 2 12s4.5 10 10 10 10-4.5 10-10S17.5 2 12 2Zm3.55 13.8-4.08-2.51a.987.987 0 0 1-.48-.85V7.75a.77.77 0 0 1 .76-.75.756.756 0 0 1 .75.75v4.45l3.84 2.31c.36.22.48.69.26 1.05a.768.768 0 0 1-1.05.24Z"/><defs><linearGradient id="a" x1="12" x2="12" y1="2" y2="22" gradientUnits="userSpaceOnUse"><stop stop-color="#FFBF00"/><stop offset="1" stop-color="#F2A60C"/></linearGradient></defs></svg>